<svg width="20" height="20" viewBox="0 0 20 20" fill="none" xmlns="http://www.w3.org/2000/svg">
<path d="M15.2496 4.75793C15.0939 4.60189 14.8825 4.51419 14.6621 4.51419C14.4417 4.51419 14.2303 4.60189 14.0746 4.75793L9.99961 8.8246L5.92461 4.7496C5.76892 4.59355 5.55754 4.50586 5.33711 4.50586C5.11668 4.50586 4.9053 4.59355 4.74961 4.7496C4.42461 5.0746 4.42461 5.5996 4.74961 5.9246L8.82461 9.9996L4.74961 14.0746C4.42461 14.3996 4.42461 14.9246 4.74961 15.2496C5.07461 15.5746 5.59961 15.5746 5.92461 15.2496L9.99961 11.1746L14.0746 15.2496C14.3996 15.5746 14.9246 15.5746 15.2496 15.2496C15.5746 14.9246 15.5746 14.3996 15.2496 14.0746L11.1746 9.9996L15.2496 5.9246C15.5663 5.60793 15.5663 5.0746 15.2496 4.75793Z" fill="#FF5E5E"/>
</svg>
