<svg width="20" height="20" viewBox="0 0 20 20" fill="none" xmlns="http://www.w3.org/2000/svg">
<path fill-rule="evenodd" clip-rule="evenodd" d="M9.99199 1.66699C5.39199 1.66699 1.66699 5.40033 1.66699 10.0003C1.66699 14.6003 5.39199 18.3337 9.99199 18.3337C14.6003 18.3337 18.3337 14.6003 18.3337 10.0003C18.3337 5.40033 14.6003 1.66699 9.99199 1.66699ZM10.0003 16.667C6.31699 16.667 3.33366 13.6837 3.33366 10.0003C3.33366 6.31699 6.31699 3.33366 10.0003 3.33366C13.6837 3.33366 16.667 6.31699 16.667 10.0003C16.667 13.6837 13.6837 16.667 10.0003 16.667ZM9.76699 5.83366H9.81699C10.1503 5.83366 10.417 6.10033 10.417 6.43366V10.217L13.642 12.1337C13.9337 12.3003 14.0253 12.6753 13.8503 12.9587C13.6837 13.242 13.317 13.3253 13.0337 13.1587L9.57533 11.0837C9.31699 10.9337 9.16699 10.6587 9.16699 10.367V6.43366C9.16699 6.10033 9.43366 5.83366 9.76699 5.83366Z" fill="#FFCC29"/>
</svg>
