<svg xmlns="http://www.w3.org/2000/svg" width="40" height="40" viewBox="0 0 40 40" fill="none">
  <path d="M30.5002 9.51684C30.1888 9.20475 29.7661 9.02936 29.3252 9.02936C28.8843 9.02936 28.4616 9.20475 28.1502 9.51684L20.0002 17.6502L11.8502 9.50017C11.5388 9.18808 11.1161 9.0127 10.6752 9.0127C10.2343 9.0127 9.81158 9.18808 9.5002 9.50017C8.8502 10.1502 8.8502 11.2002 9.5002 11.8502L17.6502 20.0002L9.5002 28.1502C8.8502 28.8002 8.8502 29.8502 9.5002 30.5002C10.1502 31.1502 11.2002 31.1502 11.8502 30.5002L20.0002 22.3502L28.1502 30.5002C28.8002 31.1502 29.8502 31.1502 30.5002 30.5002C31.1502 29.8502 31.1502 28.8002 30.5002 28.1502L22.3502 20.0002L30.5002 11.8502C31.1335 11.2168 31.1335 10.1502 30.5002 9.51684Z" fill="black"/>
</svg>
