<svg xmlns="http://www.w3.org/2000/svg" width="24" height="24" viewBox="0 0 24 24" fill="none">
  <path d="M5.20898 13.0002H16.379L11.499 17.8802C11.109 18.2702 11.109 18.9102 11.499 19.3002C11.889 19.6902 12.519 19.6902 12.909 19.3002L19.499 12.7102C19.889 12.3202 19.889 11.6902 19.499 11.3002L12.919 4.7002C12.7322 4.51295 12.4785 4.40771 12.214 4.40771C11.9495 4.40771 11.6958 4.51295 11.509 4.7002C11.119 5.0902 11.119 5.7202 11.509 6.1102L16.379 11.0002H5.20898C4.65898 11.0002 4.20898 11.4502 4.20898 12.0002C4.20898 12.5502 4.65898 13.0002 5.20898 13.0002Z" fill="black"/>
</svg>