<svg width="32" height="32" viewBox="0 0 32 32" fill="none" xmlns="http://www.w3.org/2000/svg">
<g id="Group">
<path id="Vector" d="M22.1 29.8485H1.18639C1.18065 29.8485 1.17498 29.8473 1.16968 29.8451C1.16439 29.8429 1.15959 29.8397 1.15555 29.8356C1.1515 29.8315 1.1483 29.8267 1.14613 29.8214C1.14395 29.8161 1.14284 29.8104 1.14286 29.8047V21.5341L11.312 11.3648C11.3167 11.3601 11.3222 11.3563 11.3284 11.3537C11.3345 11.3511 11.3411 11.3498 11.3478 11.3497C11.3544 11.3497 11.3611 11.351 11.3672 11.3536C11.3734 11.3561 11.379 11.3598 11.3837 11.3646L20.6697 20.6505C20.7228 20.7035 20.7858 20.7456 20.8551 20.7743C20.9244 20.803 20.9987 20.8178 21.0737 20.8178C21.1488 20.8178 21.2231 20.803 21.2924 20.7743C21.3617 20.7456 21.4247 20.7035 21.4778 20.6505C21.5308 20.5974 21.5729 20.5344 21.6016 20.4651C21.6303 20.3958 21.6451 20.3215 21.6451 20.2465C21.6451 20.1714 21.6303 20.0971 21.6016 20.0278C21.5729 19.9585 21.5308 19.8955 21.4778 19.8424L18.9843 17.349L23.5564 12.7822C23.5666 12.7741 23.5792 12.7697 23.5922 12.7697C23.6051 12.7697 23.6177 12.7741 23.6279 12.7822L29.8489 19.0089V22.0425C29.8489 22.194 29.9091 22.3394 30.0162 22.4465C30.1234 22.5537 30.2688 22.6139 30.4203 22.6139C30.5719 22.6139 30.7172 22.5537 30.8244 22.4465C30.9315 22.3394 30.9917 22.194 30.9917 22.0425V1.18637C30.9914 0.871837 30.8663 0.570289 30.6439 0.347879C30.4214 0.12547 30.1199 0.000361455 29.8053 0H1.18639C0.871834 0.000313146 0.570253 0.125406 0.34783 0.347826C0.125408 0.570246 0.00031315 0.871822 0 1.18637V29.8047C0.000302453 30.1193 0.125385 30.4209 0.347802 30.6433C0.570219 30.8658 0.871805 30.991 1.18639 30.9913H22.1C22.2515 30.9913 22.3969 30.9311 22.504 30.824C22.6112 30.7168 22.6714 30.5715 22.6714 30.4199C22.6714 30.2684 22.6112 30.123 22.504 30.0159C22.3969 29.9087 22.2515 29.8485 22.1 29.8485ZM1.18639 1.14285H29.8053C29.8169 1.14286 29.8279 1.14745 29.8361 1.15561C29.8443 1.16377 29.8489 1.17483 29.8489 1.18637V17.3924L24.4359 11.9747C24.2122 11.7509 23.9088 11.625 23.5923 11.6249C23.2759 11.6247 22.9723 11.7503 22.7484 11.9739L18.1759 16.5407L12.1917 10.5565C11.9678 10.333 11.6644 10.2075 11.348 10.2075C11.0316 10.2075 10.7281 10.333 10.5042 10.5565L1.14286 19.918V1.18637C1.14288 1.17483 1.14747 1.16377 1.15563 1.15561C1.16379 1.14745 1.17485 1.14286 1.18639 1.14285Z" fill="black"/>
<path id="Vector_2" d="M18.4265 11.0908C18.9905 11.0908 19.5418 10.9236 20.0108 10.6103C20.4798 10.297 20.8453 9.85171 21.0612 9.33066C21.2771 8.80962 21.3336 8.23626 21.2236 7.6831C21.1136 7.12993 20.842 6.62181 20.4432 6.22299C20.0444 5.82417 19.5363 5.55256 18.9832 5.44251C18.43 5.33246 17.8567 5.38891 17.3356 5.60473C16.8145 5.82055 16.3691 6.18604 16.0558 6.65498C15.7424 7.12392 15.5752 7.67525 15.5752 8.23924C15.576 8.99521 15.8767 9.71998 16.4112 10.2546C16.9458 10.7891 17.6705 11.0899 18.4265 11.0908ZM18.4265 6.53055C18.7644 6.53055 19.0948 6.63076 19.3758 6.81852C19.6568 7.00627 19.8758 7.27313 20.0051 7.58535C20.1345 7.89757 20.1683 8.24114 20.1024 8.57259C20.0364 8.90404 19.8737 9.2085 19.6347 9.44747C19.3958 9.68643 19.0913 9.84917 18.7598 9.9151C18.4284 9.98103 18.0848 9.94719 17.7726 9.81787C17.4604 9.68854 17.1935 9.46953 17.0057 9.18854C16.818 8.90755 16.7178 8.57719 16.7178 8.23924C16.7183 7.78623 16.8985 7.35193 17.2188 7.03161C17.5392 6.71128 17.9735 6.53109 18.4265 6.53055Z" fill="black"/>
<path id="Vector_3" d="M31.4282 27.1656H28.3093V24.0465C28.3093 23.895 28.2491 23.7496 28.1419 23.6425C28.0348 23.5353 27.8894 23.4751 27.7379 23.4751C27.5863 23.4751 27.441 23.5353 27.3338 23.6425C27.2267 23.7496 27.1665 23.895 27.1665 24.0465V27.1656H24.047C23.8955 27.1656 23.7501 27.2258 23.643 27.333C23.5358 27.4402 23.4756 27.5855 23.4756 27.7371C23.4756 27.8886 23.5358 28.034 23.643 28.1411C23.7501 28.2483 23.8955 28.3085 24.047 28.3085H27.1665V31.4276C27.1665 31.5791 27.2267 31.7245 27.3338 31.8316C27.441 31.9388 27.5863 31.999 27.7379 31.999C27.8894 31.999 28.0348 31.9388 28.1419 31.8316C28.2491 31.7245 28.3093 31.5791 28.3093 31.4276V28.3085H31.4282C31.5797 28.3085 31.7251 28.2483 31.8322 28.1411C31.9394 28.034 31.9996 27.8886 31.9996 27.7371C31.9996 27.5855 31.9394 27.4402 31.8322 27.333C31.7251 27.2258 31.5797 27.1656 31.4282 27.1656Z" fill="black"/>
</g>
</svg>
